<mxfile host="app.diagrams.net" modified="2023-11-29T01:00:54.122Z" agent="Mozilla/5.0 (X11; Linux x86_64) AppleWebKit/537.36 (KHTML, like Gecko) Chrome/119.0.0.0 Safari/537.36 Edg/119.0.0.0" etag="ZmZJsvKkWnSrTAj-GtUr" version="22.1.4" type="github">
  <diagram name="PÃ¡gina-1" id="_QHT0VM7mfmA924iPTIp">
    <mxGraphModel dx="2008" dy="1850" grid="1" gridSize="10" guides="1" tooltips="1" connect="1" arrows="1" fold="1" page="1" pageScale="1" pageWidth="827" pageHeight="1169" math="0" shadow="0">
      <root>
        <mxCell id="0" />
        <mxCell id="1" parent="0" />
        <mxCell id="14" value="Funcionario" style="swimlane;fontStyle=1;align=center;verticalAlign=top;childLayout=stackLayout;horizontal=1;startSize=23.605931599934895;horizontalStack=0;resizeParent=1;resizeParentMax=0;resizeLast=0;collapsible=0;marginBottom=0;" parent="1" vertex="1">
          <mxGeometry x="79.5" y="120" width="325.5" height="127.60593159993489" as="geometry" />
        </mxCell>
        <mxCell id="20" value="- cargo: string" style="text;strokeColor=none;fillColor=none;align=left;verticalAlign=top;spacingLeft=4;spacingRight=4;overflow=hidden;rotatable=0;points=[[0,0.5],[1,0.5]];portConstraint=eastwest;" parent="14" vertex="1">
          <mxGeometry y="23.605931599934895" width="325.5" height="24" as="geometry" />
        </mxCell>
        <mxCell id="4cy8AQnVeeCg22Ec7TbV-84" value="- pedidosPendentes: Pedido[]" style="text;strokeColor=none;fillColor=none;align=left;verticalAlign=top;spacingLeft=4;spacingRight=4;overflow=hidden;rotatable=0;points=[[0,0.5],[1,0.5]];portConstraint=eastwest;" vertex="1" parent="14">
          <mxGeometry y="47.60593159993489" width="325.5" height="24" as="geometry" />
        </mxCell>
        <mxCell id="21" style="line;strokeWidth=1;fillColor=none;align=left;verticalAlign=middle;spacingTop=-1;spacingLeft=3;spacingRight=3;rotatable=0;labelPosition=right;points=[];portConstraint=eastwest;strokeColor=inherit;" parent="14" vertex="1">
          <mxGeometry y="71.60593159993489" width="325.5" height="8" as="geometry" />
        </mxCell>
        <mxCell id="SXoZxHdqQvmYgP3eN_0H-120" value="+ atualizarStatus(pedido: Pedido): boolean" style="text;strokeColor=none;fillColor=none;align=left;verticalAlign=top;spacingLeft=4;spacingRight=4;overflow=hidden;rotatable=0;points=[[0,0.5],[1,0.5]];portConstraint=eastwest;" parent="14" vertex="1">
          <mxGeometry y="79.60593159993489" width="325.5" height="24" as="geometry" />
        </mxCell>
        <mxCell id="SXoZxHdqQvmYgP3eN_0H-117" value="+ verificarPedidosPendentes() : Pedido[]" style="text;strokeColor=none;fillColor=none;align=left;verticalAlign=top;spacingLeft=4;spacingRight=4;overflow=hidden;rotatable=0;points=[[0,0.5],[1,0.5]];portConstraint=eastwest;" parent="14" vertex="1">
          <mxGeometry y="103.60593159993489" width="325.5" height="24" as="geometry" />
        </mxCell>
        <mxCell id="SXoZxHdqQvmYgP3eN_0H-110" style="rounded=0;orthogonalLoop=1;jettySize=auto;html=1;exitX=0.25;exitY=0;exitDx=0;exitDy=0;endArrow=block;endFill=0;entryX=0.999;entryY=1.118;entryDx=0;entryDy=0;endSize=12;entryPerimeter=0;" parent="1" source="27" target="SXoZxHdqQvmYgP3eN_0H-99" edge="1">
          <mxGeometry relative="1" as="geometry" />
        </mxCell>
        <mxCell id="27" value="Gerente" style="swimlane;fontStyle=1;align=center;verticalAlign=top;childLayout=stackLayout;horizontal=1;startSize=23.605931599934895;horizontalStack=0;resizeParent=1;resizeParentMax=0;resizeLast=0;collapsible=0;marginBottom=0;" parent="1" vertex="1">
          <mxGeometry x="420" y="10" width="326" height="199.60593159993488" as="geometry" />
        </mxCell>
        <mxCell id="SXoZxHdqQvmYgP3eN_0H-112" value="- cargo: string" style="text;strokeColor=none;fillColor=none;align=left;verticalAlign=top;spacingLeft=4;spacingRight=4;overflow=hidden;rotatable=0;points=[[0,0.5],[1,0.5]];portConstraint=eastwest;" parent="27" vertex="1">
          <mxGeometry y="23.605931599934895" width="326" height="24" as="geometry" />
        </mxCell>
        <mxCell id="34" style="line;strokeWidth=1;fillColor=none;align=left;verticalAlign=middle;spacingTop=-1;spacingLeft=3;spacingRight=3;rotatable=0;labelPosition=right;points=[];portConstraint=eastwest;strokeColor=inherit;" parent="27" vertex="1">
          <mxGeometry y="47.60593159993489" width="326" height="8" as="geometry" />
        </mxCell>
        <mxCell id="35" value="+ cadastrarFuncionario(funcionario: Funcionario): boolean" style="text;strokeColor=none;fillColor=none;align=left;verticalAlign=top;spacingLeft=4;spacingRight=4;overflow=hidden;rotatable=0;points=[[0,0.5],[1,0.5]];portConstraint=eastwest;" parent="27" vertex="1">
          <mxGeometry y="55.60593159993489" width="326" height="24" as="geometry" />
        </mxCell>
        <mxCell id="36" value="+ removerFuncionario(funcionario: Funcionario): boolean" style="text;strokeColor=none;fillColor=none;align=left;verticalAlign=top;spacingLeft=4;spacingRight=4;overflow=hidden;rotatable=0;points=[[0,0.5],[1,0.5]];portConstraint=eastwest;" parent="27" vertex="1">
          <mxGeometry y="79.60593159993489" width="326" height="24" as="geometry" />
        </mxCell>
        <mxCell id="37" value="+ cadastrarPizza(pizza: Pizza): boolean" style="text;strokeColor=none;fillColor=none;align=left;verticalAlign=top;spacingLeft=4;spacingRight=4;overflow=hidden;rotatable=0;points=[[0,0.5],[1,0.5]];portConstraint=eastwest;" parent="27" vertex="1">
          <mxGeometry y="103.60593159993489" width="326" height="24" as="geometry" />
        </mxCell>
        <mxCell id="38" value="+ cadastrarBebida(bebida: Bebida): boolean" style="text;strokeColor=none;fillColor=none;align=left;verticalAlign=top;spacingLeft=4;spacingRight=4;overflow=hidden;rotatable=0;points=[[0,0.5],[1,0.5]];portConstraint=eastwest;" parent="27" vertex="1">
          <mxGeometry y="127.60593159993489" width="326" height="24" as="geometry" />
        </mxCell>
        <mxCell id="DunoJFlVvEclXtKHdvrS-126" value="+ atualizarPreco(produto: Produto): boolean" style="text;strokeColor=none;fillColor=none;align=left;verticalAlign=top;spacingLeft=4;spacingRight=4;overflow=hidden;rotatable=0;points=[[0,0.5],[1,0.5]];portConstraint=eastwest;" parent="27" vertex="1">
          <mxGeometry y="151.60593159993488" width="326" height="24" as="geometry" />
        </mxCell>
        <mxCell id="DunoJFlVvEclXtKHdvrS-119" value="+ visualizarComentarios(): void" style="text;strokeColor=none;fillColor=none;align=left;verticalAlign=top;spacingLeft=4;spacingRight=4;overflow=hidden;rotatable=0;points=[[0,0.5],[1,0.5]];portConstraint=eastwest;" parent="27" vertex="1">
          <mxGeometry y="175.60593159993488" width="326" height="24" as="geometry" />
        </mxCell>
        <mxCell id="40" value="Pizza" style="swimlane;fontStyle=1;align=center;verticalAlign=top;childLayout=stackLayout;horizontal=1;startSize=24.730932235717773;horizontalStack=0;resizeParent=1;resizeParentMax=0;resizeLast=0;collapsible=0;marginBottom=0;" parent="1" vertex="1">
          <mxGeometry x="140" y="1140" width="289.5" height="132.73093223571777" as="geometry" />
        </mxCell>
        <mxCell id="43" value="- ingredientes: string[]" style="text;strokeColor=none;fillColor=none;align=left;verticalAlign=top;spacingLeft=4;spacingRight=4;overflow=hidden;rotatable=0;points=[[0,0.5],[1,0.5]];portConstraint=eastwest;" parent="40" vertex="1">
          <mxGeometry y="24.730932235717773" width="289.5" height="25" as="geometry" />
        </mxCell>
        <mxCell id="44" value="- preco: float" style="text;strokeColor=none;fillColor=none;align=left;verticalAlign=top;spacingLeft=4;spacingRight=4;overflow=hidden;rotatable=0;points=[[0,0.5],[1,0.5]];portConstraint=eastwest;" parent="40" vertex="1">
          <mxGeometry y="49.73093223571777" width="289.5" height="25" as="geometry" />
        </mxCell>
        <mxCell id="45" style="line;strokeWidth=1;fillColor=none;align=left;verticalAlign=middle;spacingTop=-1;spacingLeft=3;spacingRight=3;rotatable=0;labelPosition=right;points=[];portConstraint=eastwest;strokeColor=inherit;" parent="40" vertex="1">
          <mxGeometry y="74.73093223571777" width="289.5" height="8" as="geometry" />
        </mxCell>
        <mxCell id="47" value="+ adicionarIngrediente(ingrediente: string): void" style="text;strokeColor=none;fillColor=none;align=left;verticalAlign=top;spacingLeft=4;spacingRight=4;overflow=hidden;rotatable=0;points=[[0,0.5],[1,0.5]];portConstraint=eastwest;" parent="40" vertex="1">
          <mxGeometry y="82.73093223571777" width="289.5" height="25" as="geometry" />
        </mxCell>
        <mxCell id="48" value="+ removerIngrediente(ingrediente: string): void" style="text;strokeColor=none;fillColor=none;align=left;verticalAlign=top;spacingLeft=4;spacingRight=4;overflow=hidden;rotatable=0;points=[[0,0.5],[1,0.5]];portConstraint=eastwest;" parent="40" vertex="1">
          <mxGeometry y="107.73093223571777" width="289.5" height="25" as="geometry" />
        </mxCell>
        <mxCell id="49" value="Bebida" style="swimlane;fontStyle=1;align=center;verticalAlign=top;childLayout=stackLayout;horizontal=1;startSize=26.7559326171875;horizontalStack=0;resizeParent=1;resizeParentMax=0;resizeLast=0;collapsible=0;marginBottom=0;" parent="1" vertex="1">
          <mxGeometry x="450.5" y="1140" width="189.5" height="87.7559326171875" as="geometry" />
        </mxCell>
        <mxCell id="DunoJFlVvEclXtKHdvrS-124" value="- sabor: string" style="text;strokeColor=none;fillColor=none;align=left;verticalAlign=top;spacingLeft=4;spacingRight=4;overflow=hidden;rotatable=0;points=[[0,0.5],[1,0.5]];portConstraint=eastwest;" parent="49" vertex="1">
          <mxGeometry y="26.7559326171875" width="189.5" height="25" as="geometry" />
        </mxCell>
        <mxCell id="53" style="line;strokeWidth=1;fillColor=none;align=left;verticalAlign=middle;spacingTop=-1;spacingLeft=3;spacingRight=3;rotatable=0;labelPosition=right;points=[];portConstraint=eastwest;strokeColor=inherit;" parent="49" vertex="1">
          <mxGeometry y="51.7559326171875" width="189.5" height="8" as="geometry" />
        </mxCell>
        <mxCell id="_cIstE_mvzX2A864JyEK-101" value="+ escolherSabor(): void" style="text;strokeColor=none;fillColor=none;align=left;verticalAlign=top;spacingLeft=4;spacingRight=4;overflow=hidden;rotatable=0;points=[[0,0.5],[1,0.5]];portConstraint=eastwest;" parent="49" vertex="1">
          <mxGeometry y="59.7559326171875" width="189.5" height="28" as="geometry" />
        </mxCell>
        <mxCell id="55" value="Pedido" style="swimlane;fontStyle=1;align=center;verticalAlign=top;childLayout=stackLayout;horizontal=1;startSize=24.730932235717773;horizontalStack=0;resizeParent=1;resizeParentMax=0;resizeLast=0;collapsible=0;marginBottom=0;" parent="1" vertex="1">
          <mxGeometry x="102.38" y="450" width="279.75" height="332.7309322357178" as="geometry" />
        </mxCell>
        <mxCell id="56" value="- idPedido: int" style="text;strokeColor=none;fillColor=none;align=left;verticalAlign=top;spacingLeft=4;spacingRight=4;overflow=hidden;rotatable=0;points=[[0,0.5],[1,0.5]];portConstraint=eastwest;" parent="55" vertex="1">
          <mxGeometry y="24.730932235717773" width="279.75" height="25" as="geometry" />
        </mxCell>
        <mxCell id="57" value="- itens: Item[]" style="text;strokeColor=none;fillColor=none;align=left;verticalAlign=top;spacingLeft=4;spacingRight=4;overflow=hidden;rotatable=0;points=[[0,0.5],[1,0.5]];portConstraint=eastwest;" parent="55" vertex="1">
          <mxGeometry y="49.73093223571777" width="279.75" height="25" as="geometry" />
        </mxCell>
        <mxCell id="58" value="- valorTotal: float" style="text;strokeColor=none;fillColor=none;align=left;verticalAlign=top;spacingLeft=4;spacingRight=4;overflow=hidden;rotatable=0;points=[[0,0.5],[1,0.5]];portConstraint=eastwest;" parent="55" vertex="1">
          <mxGeometry y="74.73093223571777" width="279.75" height="25" as="geometry" />
        </mxCell>
        <mxCell id="59" value="- dataPedido: Date" style="text;strokeColor=none;fillColor=none;align=left;verticalAlign=top;spacingLeft=4;spacingRight=4;overflow=hidden;rotatable=0;points=[[0,0.5],[1,0.5]];portConstraint=eastwest;" parent="55" vertex="1">
          <mxGeometry y="99.73093223571777" width="279.75" height="25" as="geometry" />
        </mxCell>
        <mxCell id="DunoJFlVvEclXtKHdvrS-103" value="- comprador: Cliente" style="text;strokeColor=none;fillColor=none;align=left;verticalAlign=top;spacingLeft=4;spacingRight=4;overflow=hidden;rotatable=0;points=[[0,0.5],[1,0.5]];portConstraint=eastwest;" parent="55" vertex="1">
          <mxGeometry y="124.73093223571777" width="279.75" height="25" as="geometry" />
        </mxCell>
        <mxCell id="4cy8AQnVeeCg22Ec7TbV-82" value="- pagamento: Pagamento" style="text;strokeColor=none;fillColor=none;align=left;verticalAlign=top;spacingLeft=4;spacingRight=4;overflow=hidden;rotatable=0;points=[[0,0.5],[1,0.5]];portConstraint=eastwest;" vertex="1" parent="55">
          <mxGeometry y="149.73093223571777" width="279.75" height="25" as="geometry" />
        </mxCell>
        <mxCell id="SXoZxHdqQvmYgP3eN_0H-115" value="- status: String" style="text;strokeColor=none;fillColor=none;align=left;verticalAlign=top;spacingLeft=4;spacingRight=4;overflow=hidden;rotatable=0;points=[[0,0.5],[1,0.5]];portConstraint=eastwest;" parent="55" vertex="1">
          <mxGeometry y="174.73093223571777" width="279.75" height="25" as="geometry" />
        </mxCell>
        <mxCell id="60" style="line;strokeWidth=1;fillColor=none;align=left;verticalAlign=middle;spacingTop=-1;spacingLeft=3;spacingRight=3;rotatable=0;labelPosition=right;points=[];portConstraint=eastwest;strokeColor=inherit;" parent="55" vertex="1">
          <mxGeometry y="199.73093223571777" width="279.75" height="8" as="geometry" />
        </mxCell>
        <mxCell id="61" value="+ adicionarItem(item: Item): void" style="text;strokeColor=none;fillColor=none;align=left;verticalAlign=top;spacingLeft=4;spacingRight=4;overflow=hidden;rotatable=0;points=[[0,0.5],[1,0.5]];portConstraint=eastwest;" parent="55" vertex="1">
          <mxGeometry y="207.73093223571777" width="279.75" height="25" as="geometry" />
        </mxCell>
        <mxCell id="62" value="+ removerItem(item: Item): void" style="text;strokeColor=none;fillColor=none;align=left;verticalAlign=top;spacingLeft=4;spacingRight=4;overflow=hidden;rotatable=0;points=[[0,0.5],[1,0.5]];portConstraint=eastwest;" parent="55" vertex="1">
          <mxGeometry y="232.73093223571777" width="279.75" height="25" as="geometry" />
        </mxCell>
        <mxCell id="_cIstE_mvzX2A864JyEK-83" value="+ atualizarStatus(status: String): void" style="text;strokeColor=none;fillColor=none;align=left;verticalAlign=top;spacingLeft=4;spacingRight=4;overflow=hidden;rotatable=0;points=[[0,0.5],[1,0.5]];portConstraint=eastwest;" parent="55" vertex="1">
          <mxGeometry y="257.7309322357178" width="279.75" height="25" as="geometry" />
        </mxCell>
        <mxCell id="4cy8AQnVeeCg22Ec7TbV-83" value="+ atualizarStatusPagamento(status: boolean): void" style="text;strokeColor=none;fillColor=none;align=left;verticalAlign=top;spacingLeft=4;spacingRight=4;overflow=hidden;rotatable=0;points=[[0,0.5],[1,0.5]];portConstraint=eastwest;" vertex="1" parent="55">
          <mxGeometry y="282.7309322357178" width="279.75" height="25" as="geometry" />
        </mxCell>
        <mxCell id="63" value="+ calcularValorTotal(): float" style="text;strokeColor=none;fillColor=none;align=left;verticalAlign=top;spacingLeft=4;spacingRight=4;overflow=hidden;rotatable=0;points=[[0,0.5],[1,0.5]];portConstraint=eastwest;" parent="55" vertex="1">
          <mxGeometry y="307.7309322357178" width="279.75" height="25" as="geometry" />
        </mxCell>
        <mxCell id="64" value="Item" style="swimlane;fontStyle=1;align=center;verticalAlign=top;childLayout=stackLayout;horizontal=1;startSize=28.105932235717773;horizontalStack=0;resizeParent=1;resizeParentMax=0;resizeLast=0;collapsible=0;marginBottom=0;" parent="1" vertex="1">
          <mxGeometry x="133.75" y="850" width="217" height="148.10593223571777" as="geometry" />
        </mxCell>
        <mxCell id="65" value="- produto: Produto" style="text;strokeColor=none;fillColor=none;align=left;verticalAlign=top;spacingLeft=4;spacingRight=4;overflow=hidden;rotatable=0;points=[[0,0.5],[1,0.5]];portConstraint=eastwest;" parent="64" vertex="1">
          <mxGeometry y="28.105932235717773" width="217" height="28" as="geometry" />
        </mxCell>
        <mxCell id="66" value="- quantidade: int" style="text;strokeColor=none;fillColor=none;align=left;verticalAlign=top;spacingLeft=4;spacingRight=4;overflow=hidden;rotatable=0;points=[[0,0.5],[1,0.5]];portConstraint=eastwest;" parent="64" vertex="1">
          <mxGeometry y="56.10593223571777" width="217" height="28" as="geometry" />
        </mxCell>
        <mxCell id="67" style="line;strokeWidth=1;fillColor=none;align=left;verticalAlign=middle;spacingTop=-1;spacingLeft=3;spacingRight=3;rotatable=0;labelPosition=right;points=[];portConstraint=eastwest;strokeColor=inherit;" parent="64" vertex="1">
          <mxGeometry y="84.10593223571777" width="217" height="8" as="geometry" />
        </mxCell>
        <mxCell id="_cIstE_mvzX2A864JyEK-99" value="+ calcularSubtotal(): number" style="text;strokeColor=none;fillColor=none;align=left;verticalAlign=top;spacingLeft=4;spacingRight=4;overflow=hidden;rotatable=0;points=[[0,0.5],[1,0.5]];portConstraint=eastwest;" parent="64" vertex="1">
          <mxGeometry y="92.10593223571777" width="217" height="28" as="geometry" />
        </mxCell>
        <mxCell id="68" value="+ escolherProduto(): void" style="text;strokeColor=none;fillColor=none;align=left;verticalAlign=top;spacingLeft=4;spacingRight=4;overflow=hidden;rotatable=0;points=[[0,0.5],[1,0.5]];portConstraint=eastwest;" parent="64" vertex="1">
          <mxGeometry y="120.10593223571777" width="217" height="28" as="geometry" />
        </mxCell>
        <mxCell id="69" value="Produto" style="swimlane;fontStyle=1;align=center;verticalAlign=top;childLayout=stackLayout;horizontal=1;startSize=26.01936994280134;horizontalStack=0;resizeParent=1;resizeParentMax=0;resizeLast=0;collapsible=0;marginBottom=0;" parent="1" vertex="1">
          <mxGeometry x="390" y="998.11" width="119" height="118.01936994280135" as="geometry" />
        </mxCell>
        <mxCell id="70" value="- idProduto: int" style="text;strokeColor=none;fillColor=none;align=left;verticalAlign=top;spacingLeft=4;spacingRight=4;overflow=hidden;rotatable=0;points=[[0,0.5],[1,0.5]];portConstraint=eastwest;" parent="69" vertex="1">
          <mxGeometry y="26.01936994280134" width="119" height="26" as="geometry" />
        </mxCell>
        <mxCell id="71" value="- nome: string" style="text;strokeColor=none;fillColor=none;align=left;verticalAlign=top;spacingLeft=4;spacingRight=4;overflow=hidden;rotatable=0;points=[[0,0.5],[1,0.5]];portConstraint=eastwest;" parent="69" vertex="1">
          <mxGeometry y="52.01936994280134" width="119" height="26" as="geometry" />
        </mxCell>
        <mxCell id="DunoJFlVvEclXtKHdvrS-123" value="- preco: float" style="text;strokeColor=none;fillColor=none;align=left;verticalAlign=top;spacingLeft=4;spacingRight=4;overflow=hidden;rotatable=0;points=[[0,0.5],[1,0.5]];portConstraint=eastwest;" parent="69" vertex="1">
          <mxGeometry y="78.01936994280135" width="119" height="27" as="geometry" />
        </mxCell>
        <mxCell id="72" style="line;strokeWidth=1;fillColor=none;align=left;verticalAlign=middle;spacingTop=-1;spacingLeft=3;spacingRight=3;rotatable=0;labelPosition=right;points=[];portConstraint=eastwest;strokeColor=inherit;" parent="69" vertex="1">
          <mxGeometry y="105.01936994280135" width="119" height="13" as="geometry" />
        </mxCell>
        <mxCell id="76" value="" style="startArrow=none;endArrow=open;endSize=12;entryX=0.5;entryY=0;entryDx=0;entryDy=0;edgeStyle=orthogonalEdgeStyle;exitX=0.499;exitY=0.973;exitDx=0;exitDy=0;exitPerimeter=0;" parent="1" source="SXoZxHdqQvmYgP3eN_0H-117" target="55" edge="1">
          <mxGeometry relative="1" as="geometry">
            <mxPoint x="241" y="550" as="sourcePoint" />
          </mxGeometry>
        </mxCell>
        <mxCell id="79" value="" style="curved=1;startArrow=none;endArrow=open;endSize=12;entryX=1;entryY=0.5;entryDx=0;entryDy=0;exitX=0.463;exitY=1.24;exitDx=0;exitDy=0;exitPerimeter=0;" parent="1" target="DunoJFlVvEclXtKHdvrS-102" edge="1" source="DunoJFlVvEclXtKHdvrS-119">
          <mxGeometry relative="1" as="geometry">
            <Array as="points">
              <mxPoint x="580" y="410" />
            </Array>
            <mxPoint x="570" y="270" as="sourcePoint" />
            <mxPoint x="490" y="770" as="targetPoint" />
          </mxGeometry>
        </mxCell>
        <mxCell id="_cIstE_mvzX2A864JyEK-97" value="Acessa" style="edgeLabel;html=1;align=center;verticalAlign=middle;resizable=0;points=[];" parent="79" vertex="1" connectable="0">
          <mxGeometry x="-0.2054" y="-4" relative="1" as="geometry">
            <mxPoint x="-38" y="-66" as="offset" />
          </mxGeometry>
        </mxCell>
        <mxCell id="82" value="" style="curved=1;startArrow=none;endArrow=open;endSize=12;exitX=0.5000195481260801;exitY=1.00367218653361;entryX=0.011;entryY=0.131;entryDx=0;entryDy=0;entryPerimeter=0;" parent="1" source="64" target="69" edge="1">
          <mxGeometry relative="1" as="geometry">
            <Array as="points">
              <mxPoint x="240" y="1020" />
            </Array>
          </mxGeometry>
        </mxCell>
        <mxCell id="SXoZxHdqQvmYgP3eN_0H-86" value="UsuÃ¡rio" style="swimlane;fontStyle=1;align=center;verticalAlign=top;childLayout=stackLayout;horizontal=1;startSize=26.7559326171875;horizontalStack=0;resizeParent=1;resizeParentMax=0;resizeLast=0;collapsible=0;marginBottom=0;" parent="1" vertex="1">
          <mxGeometry x="78" y="-197" width="336" height="196.7559326171875" as="geometry" />
        </mxCell>
        <mxCell id="SXoZxHdqQvmYgP3eN_0H-87" value="- nome: string" style="text;strokeColor=none;fillColor=none;align=left;verticalAlign=top;spacingLeft=4;spacingRight=4;overflow=hidden;rotatable=0;points=[[0,0.5],[1,0.5]];portConstraint=eastwest;" parent="SXoZxHdqQvmYgP3eN_0H-86" vertex="1">
          <mxGeometry y="26.7559326171875" width="336" height="27" as="geometry" />
        </mxCell>
        <mxCell id="SXoZxHdqQvmYgP3eN_0H-88" value="- endereco: string" style="text;strokeColor=none;fillColor=none;align=left;verticalAlign=top;spacingLeft=4;spacingRight=4;overflow=hidden;rotatable=0;points=[[0,0.5],[1,0.5]];portConstraint=eastwest;" parent="SXoZxHdqQvmYgP3eN_0H-86" vertex="1">
          <mxGeometry y="53.7559326171875" width="336" height="27" as="geometry" />
        </mxCell>
        <mxCell id="SXoZxHdqQvmYgP3eN_0H-89" value="- telefone: int" style="text;strokeColor=none;fillColor=none;align=left;verticalAlign=top;spacingLeft=4;spacingRight=4;overflow=hidden;rotatable=0;points=[[0,0.5],[1,0.5]];portConstraint=eastwest;" parent="SXoZxHdqQvmYgP3eN_0H-86" vertex="1">
          <mxGeometry y="80.7559326171875" width="336" height="27" as="geometry" />
        </mxCell>
        <mxCell id="SXoZxHdqQvmYgP3eN_0H-98" value="- email: string" style="text;strokeColor=none;fillColor=none;align=left;verticalAlign=top;spacingLeft=4;spacingRight=4;overflow=hidden;rotatable=0;points=[[0,0.5],[1,0.5]];portConstraint=eastwest;" parent="SXoZxHdqQvmYgP3eN_0H-86" vertex="1">
          <mxGeometry y="107.7559326171875" width="336" height="27" as="geometry" />
        </mxCell>
        <mxCell id="SXoZxHdqQvmYgP3eN_0H-99" value="- senha: string" style="text;strokeColor=none;fillColor=none;align=left;verticalAlign=top;spacingLeft=4;spacingRight=4;overflow=hidden;rotatable=0;points=[[0,0.5],[1,0.5]];portConstraint=eastwest;" parent="SXoZxHdqQvmYgP3eN_0H-86" vertex="1">
          <mxGeometry y="134.7559326171875" width="336" height="27" as="geometry" />
        </mxCell>
        <mxCell id="SXoZxHdqQvmYgP3eN_0H-90" style="line;strokeWidth=1;fillColor=none;align=left;verticalAlign=middle;spacingTop=-1;spacingLeft=3;spacingRight=3;rotatable=0;labelPosition=right;points=[];portConstraint=eastwest;strokeColor=inherit;" parent="SXoZxHdqQvmYgP3eN_0H-86" vertex="1">
          <mxGeometry y="161.7559326171875" width="336" height="8" as="geometry" />
        </mxCell>
        <mxCell id="SXoZxHdqQvmYgP3eN_0H-91" value="+ efetuarLogin(email: string, senha: string): boolean" style="text;strokeColor=none;fillColor=none;align=left;verticalAlign=top;spacingLeft=4;spacingRight=4;overflow=hidden;rotatable=0;points=[[0,0.5],[1,0.5]];portConstraint=eastwest;" parent="SXoZxHdqQvmYgP3eN_0H-86" vertex="1">
          <mxGeometry y="169.7559326171875" width="336" height="27" as="geometry" />
        </mxCell>
        <mxCell id="SXoZxHdqQvmYgP3eN_0H-113" style="rounded=0;orthogonalLoop=1;jettySize=auto;html=1;endArrow=block;endFill=0;endSize=12;edgeStyle=orthogonalEdgeStyle;exitX=0.5;exitY=0;exitDx=0;exitDy=0;" parent="1" source="14" edge="1" target="SXoZxHdqQvmYgP3eN_0H-91">
          <mxGeometry relative="1" as="geometry">
            <mxPoint x="244.13" y="90" as="sourcePoint" />
            <mxPoint x="245.88" y="37" as="targetPoint" />
            <Array as="points">
              <mxPoint x="246" y="120" />
            </Array>
          </mxGeometry>
        </mxCell>
        <mxCell id="DunoJFlVvEclXtKHdvrS-84" value="Comentario" style="swimlane;fontStyle=1;align=center;verticalAlign=top;childLayout=stackLayout;horizontal=1;startSize=23.8104775168679;horizontalStack=0;resizeParent=1;resizeParentMax=0;resizeLast=0;collapsible=0;marginBottom=0;" parent="1" vertex="1">
          <mxGeometry x="-100" y="310" width="305" height="103.8104775168679" as="geometry" />
        </mxCell>
        <mxCell id="DunoJFlVvEclXtKHdvrS-102" value="- avaliador: Cliente" style="text;strokeColor=none;fillColor=none;align=left;verticalAlign=top;spacingLeft=4;spacingRight=4;overflow=hidden;rotatable=0;points=[[0,0.5],[1,0.5]];portConstraint=eastwest;" parent="DunoJFlVvEclXtKHdvrS-84" vertex="1">
          <mxGeometry y="23.8104775168679" width="305" height="24" as="geometry" />
        </mxCell>
        <mxCell id="DunoJFlVvEclXtKHdvrS-85" value="- avaliaÃ§Ã£o: string" style="text;strokeColor=none;fillColor=none;align=left;verticalAlign=top;spacingLeft=4;spacingRight=4;overflow=hidden;rotatable=0;points=[[0,0.5],[1,0.5]];portConstraint=eastwest;" parent="DunoJFlVvEclXtKHdvrS-84" vertex="1">
          <mxGeometry y="47.8104775168679" width="305" height="24" as="geometry" />
        </mxCell>
        <mxCell id="DunoJFlVvEclXtKHdvrS-86" style="line;strokeWidth=1;fillColor=none;align=left;verticalAlign=middle;spacingTop=-1;spacingLeft=3;spacingRight=3;rotatable=0;labelPosition=right;points=[];portConstraint=eastwest;strokeColor=inherit;" parent="DunoJFlVvEclXtKHdvrS-84" vertex="1">
          <mxGeometry y="71.8104775168679" width="305" height="8" as="geometry" />
        </mxCell>
        <mxCell id="DunoJFlVvEclXtKHdvrS-133" value="+ editarComentario(comentario: Comentario): void" style="text;strokeColor=none;fillColor=none;align=left;verticalAlign=top;spacingLeft=4;spacingRight=4;overflow=hidden;rotatable=0;points=[[0,0.5],[1,0.5]];portConstraint=eastwest;" parent="DunoJFlVvEclXtKHdvrS-84" vertex="1">
          <mxGeometry y="79.8104775168679" width="305" height="24" as="geometry" />
        </mxCell>
        <mxCell id="DunoJFlVvEclXtKHdvrS-115" value="" style="endArrow=none;html=1;rounded=0;exitX=0.301;exitY=1.05;exitDx=0;exitDy=0;exitPerimeter=0;entryX=-0.019;entryY=0.18;entryDx=0;entryDy=0;entryPerimeter=0;" parent="1" source="SXoZxHdqQvmYgP3eN_0H-119" target="DunoJFlVvEclXtKHdvrS-85" edge="1">
          <mxGeometry relative="1" as="geometry">
            <mxPoint x="-188.19499999999994" y="407.70647751686784" as="sourcePoint" />
            <mxPoint x="-90" y="486.81047751686765" as="targetPoint" />
          </mxGeometry>
        </mxCell>
        <mxCell id="DunoJFlVvEclXtKHdvrS-116" value="1" style="edgeLabel;resizable=0;html=1;align=left;verticalAlign=bottom;" parent="DunoJFlVvEclXtKHdvrS-115" connectable="0" vertex="1">
          <mxGeometry x="-1" relative="1" as="geometry">
            <mxPoint x="18" y="23" as="offset" />
          </mxGeometry>
        </mxCell>
        <mxCell id="DunoJFlVvEclXtKHdvrS-117" value="0..*" style="edgeLabel;resizable=0;html=1;align=right;verticalAlign=bottom;" parent="DunoJFlVvEclXtKHdvrS-115" connectable="0" vertex="1">
          <mxGeometry x="1" relative="1" as="geometry">
            <mxPoint x="-10" y="-6" as="offset" />
          </mxGeometry>
        </mxCell>
        <mxCell id="DunoJFlVvEclXtKHdvrS-118" value="Cadastra" style="endArrow=open;endSize=12;dashed=1;html=1;rounded=0;entryX=0.701;entryY=1.049;entryDx=0;entryDy=0;entryPerimeter=0;edgeStyle=orthogonalEdgeStyle;curved=1;exitX=0.29;exitY=1.096;exitDx=0;exitDy=0;exitPerimeter=0;" parent="1" edge="1">
          <mxGeometry width="160" relative="1" as="geometry">
            <mxPoint x="508.99999999999994" y="209.6199315999347" as="sourcePoint" />
            <mxPoint x="302.1354999999998" y="246.491931599935" as="targetPoint" />
            <Array as="points">
              <mxPoint x="509" y="298" />
              <mxPoint x="302" y="298" />
            </Array>
          </mxGeometry>
        </mxCell>
        <mxCell id="DunoJFlVvEclXtKHdvrS-120" style="rounded=0;orthogonalLoop=1;jettySize=auto;html=1;exitX=0.557;exitY=0.002;exitDx=0;exitDy=0;endArrow=block;endFill=0;entryX=0.01;entryY=0.958;entryDx=0;entryDy=0;endSize=12;exitPerimeter=0;entryPerimeter=0;" parent="1" source="2" edge="1" target="SXoZxHdqQvmYgP3eN_0H-99">
          <mxGeometry relative="1" as="geometry">
            <mxPoint x="-110" y="160" as="sourcePoint" />
            <mxPoint x="77" y="23" as="targetPoint" />
          </mxGeometry>
        </mxCell>
        <mxCell id="DunoJFlVvEclXtKHdvrS-127" value="Cadastra" style="endArrow=open;endSize=12;dashed=1;html=1;rounded=0;entryX=1.044;entryY=0.126;entryDx=0;entryDy=0;edgeStyle=orthogonalEdgeStyle;curved=1;entryPerimeter=0;exitX=0.769;exitY=1.168;exitDx=0;exitDy=0;exitPerimeter=0;" parent="1" target="69" edge="1" source="DunoJFlVvEclXtKHdvrS-119">
          <mxGeometry width="160" relative="1" as="geometry">
            <mxPoint x="670" y="270" as="sourcePoint" />
            <mxPoint x="520.0049999999998" y="984.1516464451381" as="targetPoint" />
            <Array as="points">
              <mxPoint x="671" y="1013" />
            </Array>
          </mxGeometry>
        </mxCell>
        <mxCell id="DunoJFlVvEclXtKHdvrS-128" value="" style="endArrow=none;html=1;rounded=0;exitX=0.066;exitY=1.258;exitDx=0;exitDy=0;exitPerimeter=0;entryX=0;entryY=1.066;entryDx=0;entryDy=0;entryPerimeter=0;" parent="1" source="SXoZxHdqQvmYgP3eN_0H-119" target="SXoZxHdqQvmYgP3eN_0H-115" edge="1">
          <mxGeometry relative="1" as="geometry">
            <mxPoint x="-234.8599999999999" y="406.70647751686784" as="sourcePoint" />
            <mxPoint x="-112" y="579" as="targetPoint" />
            <Array as="points" />
          </mxGeometry>
        </mxCell>
        <mxCell id="DunoJFlVvEclXtKHdvrS-129" value="1" style="edgeLabel;resizable=0;html=1;align=left;verticalAlign=bottom;" parent="DunoJFlVvEclXtKHdvrS-128" connectable="0" vertex="1">
          <mxGeometry x="-1" relative="1" as="geometry">
            <mxPoint x="18" y="23" as="offset" />
          </mxGeometry>
        </mxCell>
        <mxCell id="DunoJFlVvEclXtKHdvrS-130" value="0..*" style="edgeLabel;resizable=0;html=1;align=right;verticalAlign=bottom;" parent="DunoJFlVvEclXtKHdvrS-128" connectable="0" vertex="1">
          <mxGeometry x="1" relative="1" as="geometry">
            <mxPoint x="-10" y="-6" as="offset" />
          </mxGeometry>
        </mxCell>
        <mxCell id="DunoJFlVvEclXtKHdvrS-131" style="rounded=0;orthogonalLoop=1;jettySize=auto;html=1;exitX=0.5;exitY=0;exitDx=0;exitDy=0;endArrow=block;endFill=0;entryX=1;entryY=1;entryDx=0;entryDy=0;endSize=12;" parent="1" source="49" target="69" edge="1">
          <mxGeometry relative="1" as="geometry">
            <mxPoint x="642" y="1367" as="sourcePoint" />
            <mxPoint x="524" y="1260" as="targetPoint" />
          </mxGeometry>
        </mxCell>
        <mxCell id="DunoJFlVvEclXtKHdvrS-132" style="rounded=0;orthogonalLoop=1;jettySize=auto;html=1;exitX=0.734;exitY=-0.016;exitDx=0;exitDy=0;endArrow=block;endFill=0;entryX=0;entryY=1;entryDx=0;entryDy=0;endSize=12;exitPerimeter=0;" parent="1" source="40" target="69" edge="1">
          <mxGeometry relative="1" as="geometry">
            <mxPoint x="378" y="1350" as="sourcePoint" />
            <mxPoint x="280" y="1250" as="targetPoint" />
          </mxGeometry>
        </mxCell>
        <mxCell id="_cIstE_mvzX2A864JyEK-87" value="Pagamento" style="swimlane;fontStyle=1;align=center;verticalAlign=top;childLayout=stackLayout;horizontal=1;startSize=28.105932235717773;horizontalStack=0;resizeParent=1;resizeParentMax=0;resizeLast=0;collapsible=0;marginBottom=0;" parent="1" vertex="1">
          <mxGeometry x="-300" y="650" width="310" height="120.10593223571777" as="geometry" />
        </mxCell>
        <mxCell id="_cIstE_mvzX2A864JyEK-88" value="- formaPagamento: string" style="text;strokeColor=none;fillColor=none;align=left;verticalAlign=top;spacingLeft=4;spacingRight=4;overflow=hidden;rotatable=0;points=[[0,0.5],[1,0.5]];portConstraint=eastwest;" parent="_cIstE_mvzX2A864JyEK-87" vertex="1">
          <mxGeometry y="28.105932235717773" width="310" height="28" as="geometry" />
        </mxCell>
        <mxCell id="_cIstE_mvzX2A864JyEK-89" value="- pagamentoEfetuado: boolean" style="text;strokeColor=none;fillColor=none;align=left;verticalAlign=top;spacingLeft=4;spacingRight=4;overflow=hidden;rotatable=0;points=[[0,0.5],[1,0.5]];portConstraint=eastwest;" parent="_cIstE_mvzX2A864JyEK-87" vertex="1">
          <mxGeometry y="56.10593223571777" width="310" height="28" as="geometry" />
        </mxCell>
        <mxCell id="_cIstE_mvzX2A864JyEK-90" style="line;strokeWidth=1;fillColor=none;align=left;verticalAlign=middle;spacingTop=-1;spacingLeft=3;spacingRight=3;rotatable=0;labelPosition=right;points=[];portConstraint=eastwest;strokeColor=inherit;" parent="_cIstE_mvzX2A864JyEK-87" vertex="1">
          <mxGeometry y="84.10593223571777" width="310" height="8" as="geometry" />
        </mxCell>
        <mxCell id="_cIstE_mvzX2A864JyEK-92" value="+ modificarMetodoPagamento(metodo: string): void" style="text;strokeColor=none;fillColor=none;align=left;verticalAlign=top;spacingLeft=4;spacingRight=4;overflow=hidden;rotatable=0;points=[[0,0.5],[1,0.5]];portConstraint=eastwest;" parent="_cIstE_mvzX2A864JyEK-87" vertex="1">
          <mxGeometry y="92.10593223571777" width="310" height="28" as="geometry" />
        </mxCell>
        <mxCell id="_cIstE_mvzX2A864JyEK-95" value="Possui" style="endArrow=open;endSize=12;dashed=1;html=1;rounded=0;entryX=0.999;entryY=0.086;entryDx=0;entryDy=0;exitX=0.003;exitY=0.147;exitDx=0;exitDy=0;edgeStyle=orthogonalEdgeStyle;curved=1;entryPerimeter=0;exitPerimeter=0;" parent="1" target="_cIstE_mvzX2A864JyEK-87" edge="1" source="61">
          <mxGeometry width="160" relative="1" as="geometry">
            <mxPoint x="120.25" y="637.2309322357178" as="sourcePoint" />
            <mxPoint x="-205" y="610" as="targetPoint" />
            <Array as="points">
              <mxPoint x="100" y="661" />
              <mxPoint x="100" y="660" />
            </Array>
          </mxGeometry>
        </mxCell>
        <mxCell id="2" value="Cliente" style="swimlane;fontStyle=1;align=center;verticalAlign=top;childLayout=stackLayout;horizontal=1;startSize=23.8104775168679;horizontalStack=0;resizeParent=1;resizeParentMax=0;resizeLast=0;collapsible=0;marginBottom=0;" parent="1" vertex="1">
          <mxGeometry x="-270" y="10.000000000000004" width="305" height="278.8104775168679" as="geometry" />
        </mxCell>
        <mxCell id="SXoZxHdqQvmYgP3eN_0H-116" value="- pedidos: Pedido[]" style="text;strokeColor=none;fillColor=none;align=left;verticalAlign=top;spacingLeft=4;spacingRight=4;overflow=hidden;rotatable=0;points=[[0,0.5],[1,0.5]];portConstraint=eastwest;" parent="2" vertex="1">
          <mxGeometry y="23.8104775168679" width="305" height="24" as="geometry" />
        </mxCell>
        <mxCell id="DunoJFlVvEclXtKHdvrS-109" value="- carrinho: Item[]" style="text;strokeColor=none;fillColor=none;align=left;verticalAlign=top;spacingLeft=4;spacingRight=4;overflow=hidden;rotatable=0;points=[[0,0.5],[1,0.5]];portConstraint=eastwest;" parent="2" vertex="1">
          <mxGeometry y="47.8104775168679" width="305" height="24" as="geometry" />
        </mxCell>
        <mxCell id="9" style="line;strokeWidth=1;fillColor=none;align=left;verticalAlign=middle;spacingTop=-1;spacingLeft=3;spacingRight=3;rotatable=0;labelPosition=right;points=[];portConstraint=eastwest;strokeColor=inherit;" parent="2" vertex="1">
          <mxGeometry y="71.8104775168679" width="305" height="8" as="geometry" />
        </mxCell>
        <mxCell id="4cy8AQnVeeCg22Ec7TbV-85" value="+ efetuarCadastro(): boolean" style="text;strokeColor=none;fillColor=none;align=left;verticalAlign=top;spacingLeft=4;spacingRight=4;overflow=hidden;rotatable=0;points=[[0,0.5],[1,0.5]];portConstraint=eastwest;" vertex="1" parent="2">
          <mxGeometry y="79.8104775168679" width="305" height="27" as="geometry" />
        </mxCell>
        <mxCell id="10" value="+ fazerPedido(): Pedido" style="text;strokeColor=none;fillColor=none;align=left;verticalAlign=top;spacingLeft=4;spacingRight=4;overflow=hidden;rotatable=0;points=[[0,0.5],[1,0.5]];portConstraint=eastwest;" parent="2" vertex="1">
          <mxGeometry y="106.8104775168679" width="305" height="24" as="geometry" />
        </mxCell>
        <mxCell id="11" value="+ adicionarItemCarrinho(item: Item): boolean" style="text;strokeColor=none;fillColor=none;align=left;verticalAlign=top;spacingLeft=4;spacingRight=4;overflow=hidden;rotatable=0;points=[[0,0.5],[1,0.5]];portConstraint=eastwest;" parent="2" vertex="1">
          <mxGeometry y="130.8104775168679" width="305" height="24" as="geometry" />
        </mxCell>
        <mxCell id="12" value="+ excluirItemCarrinho(item: Item): boolean" style="text;strokeColor=none;fillColor=none;align=left;verticalAlign=top;spacingLeft=4;spacingRight=4;overflow=hidden;rotatable=0;points=[[0,0.5],[1,0.5]];portConstraint=eastwest;" parent="2" vertex="1">
          <mxGeometry y="154.8104775168679" width="305" height="24" as="geometry" />
        </mxCell>
        <mxCell id="13" value="+ finalizarPedido(pedido: Pedido): boolean" style="text;strokeColor=none;fillColor=none;align=left;verticalAlign=top;spacingLeft=4;spacingRight=4;overflow=hidden;rotatable=0;points=[[0,0.5],[1,0.5]];portConstraint=eastwest;" parent="2" vertex="1">
          <mxGeometry y="178.8104775168679" width="305" height="24" as="geometry" />
        </mxCell>
        <mxCell id="_cIstE_mvzX2A864JyEK-91" value="+ efetuarPagamento(pedido: Pedido): boolean" style="text;strokeColor=none;fillColor=none;align=left;verticalAlign=top;spacingLeft=4;spacingRight=4;overflow=hidden;rotatable=0;points=[[0,0.5],[1,0.5]];portConstraint=eastwest;" parent="2" vertex="1">
          <mxGeometry y="202.8104775168679" width="305" height="28" as="geometry" />
        </mxCell>
        <mxCell id="SXoZxHdqQvmYgP3eN_0H-118" value="+ verificarPedidosAnteriores(): void" style="text;strokeColor=none;fillColor=none;align=left;verticalAlign=top;spacingLeft=4;spacingRight=4;overflow=hidden;rotatable=0;points=[[0,0.5],[1,0.5]];portConstraint=eastwest;" parent="2" vertex="1">
          <mxGeometry y="230.8104775168679" width="305" height="24" as="geometry" />
        </mxCell>
        <mxCell id="SXoZxHdqQvmYgP3eN_0H-119" value="+ registrarComentario(): boolean" style="text;strokeColor=none;fillColor=none;align=left;verticalAlign=top;spacingLeft=4;spacingRight=4;overflow=hidden;rotatable=0;points=[[0,0.5],[1,0.5]];portConstraint=eastwest;" parent="2" vertex="1">
          <mxGeometry y="254.8104775168679" width="305" height="24" as="geometry" />
        </mxCell>
        <mxCell id="3j0r_rhcc79KOelKi6i0-82" value="1" style="endArrow=open;html=1;endSize=12;startArrow=diamondThin;startSize=14;startFill=1;edgeStyle=orthogonalEdgeStyle;align=left;verticalAlign=bottom;rounded=0;" parent="1" source="63" edge="1">
          <mxGeometry x="-0.4866" relative="1" as="geometry">
            <mxPoint x="230" y="790" as="sourcePoint" />
            <mxPoint x="230" y="850" as="targetPoint" />
            <Array as="points">
              <mxPoint x="230" y="810" />
              <mxPoint x="230" y="810" />
            </Array>
            <mxPoint as="offset" />
          </mxGeometry>
        </mxCell>
        <mxCell id="cqIfjwWlfIS6sCxWjlf6-82" value="*" style="edgeLabel;html=1;align=center;verticalAlign=middle;resizable=0;points=[];fontSize=16;" parent="3j0r_rhcc79KOelKi6i0-82" vertex="1" connectable="0">
          <mxGeometry x="0.3722" y="-2" relative="1" as="geometry">
            <mxPoint x="12" as="offset" />
          </mxGeometry>
        </mxCell>
      </root>
    </mxGraphModel>
  </diagram>
</mxfile>
